<?xml version="1.0" encoding="utf-8"?>
<!-- Generator: Adobe Illustrator 24.1.3, SVG Export Plug-In . SVG Version: 6.00 Build 0)  -->
<svg version="1.1" id="Layer_1" xmlns="http://www.w3.org/2000/svg" xmlns:xlink="http://www.w3.org/1999/xlink" x="0px" y="0px"
	 viewBox="0 0 300.3 84.8" style="enable-background:new 0 0 300.3 84.8;" xml:space="preserve">
<style type="text/css">
	.st0{fill:none;}
	.st1{fill-rule:evenodd;clip-rule:evenodd;fill:#4E008E;}
</style>
<g>
	<rect y="0" class="st0" width="300.3" height="84.8"/>
	<g>
		<rect x="20.2" y="40.6" class="st1" width="9.2" height="3.7"/>
		<polygon class="st1" points="36.8,44.3 46,44.3 46,40.6 33.1,40.6 33.1,57.2 36.8,57.2 		"/>
		<path class="st1" d="M29.4,18.9v-3.8c-9.4,1.7-16.6,10-16.6,19.9v9.2h3.7v-9.2C16.6,27.2,22.1,20.6,29.4,18.9"/>
		<path class="st1" d="M49.7,40.6v11c0,9.1-7.4,16.6-16.6,16.6v3.7c11.2,0,20.2-9.1,20.2-20.2v-11H49.7z"/>
		<polygon class="st1" points="68.2,42.3 68.2,52.3 66.2,52.3 66.2,42.3 62.4,42.3 62.4,40.6 72,40.6 72,42.3 		"/>
		<path class="st1" d="M76,48.3L76,48.3c-0.6,0-1.4,0.1-1.9,0.2c-1.2,0.2-1.6,0.6-1.6,1.3c0,0.7,0.5,1.2,1.5,1.2
			c0.6,0,1.1-0.2,1.5-0.6c0.4-0.5,0.6-0.9,0.6-1.8V48.3z M77.8,47v3.1c0,1,0.1,1.7,0.2,2.2h-1.7c-0.1-0.4-0.1-0.8-0.1-1.2h0
			c-0.6,0.9-1.5,1.3-2.8,1.3c-1.7,0-2.8-1.1-2.8-2.5c0-1.4,0.8-2.2,3.2-2.6c0.7-0.1,1.7-0.2,2.2-0.2v-0.3c0-1.2-0.7-1.7-1.6-1.7
			c-1,0-1.6,0.6-1.6,1.5h-1.8c0.1-1.6,1.2-2.8,3.5-2.8C76.6,43.7,77.8,44.8,77.8,47z"/>
		<path class="st1" d="M91.5,47.1v5.1h-1.9v-5c0-1.5-0.6-2.1-1.5-2.1c-1.1,0-1.8,0.9-1.8,2.5v4.5h-1.9v-5.2c0-1.2-0.5-1.9-1.5-1.9
			c-1.1,0-1.8,1-1.8,2.6v4.5h-1.9v-8.3h1.8v1h0c0.6-0.8,1.3-1.2,2.3-1.2c1.1,0,2,0.5,2.5,1.5c0.6-1,1.4-1.5,2.7-1.5
			C90.4,43.7,91.5,44.9,91.5,47.1"/>
		<path class="st1" d="M94.8,48.1L94.8,48.1c0,1.8,0.8,2.9,2,2.9c1.3,0,2.1-1.1,2.1-2.9c0-1.8-0.8-2.9-2.1-2.9
			C95.6,45.2,94.8,46.3,94.8,48.1 M100.8,48.1c0,2.7-1.3,4.4-3.5,4.4c-1,0-2-0.5-2.4-1.3h0v4.1H93V43.9h1.8v1.1h0
			c0.5-0.9,1.4-1.4,2.5-1.4C99.5,43.7,100.8,45.4,100.8,48.1z"/>
		<path class="st1" d="M103.4,47.3L103.4,47.3h4.2c-0.1-1.5-1-2.2-2.1-2.2C104.4,45.1,103.6,45.8,103.4,47.3 M107.5,49.8h1.9
			c-0.3,1.5-1.7,2.8-3.8,2.8c-2.5,0-4-1.8-4-4.5c0-2.5,1.5-4.3,4-4.3c1.9,0,3.3,1.1,3.7,2.8c0.2,0.5,0.2,1.1,0.2,2h-6.1
			c0.1,1.9,1,2.7,2.2,2.7C106.6,51.1,107.3,50.6,107.5,49.8z"/>
		<path class="st1" d="M115.4,43.9v1.7c-0.2,0-0.4-0.1-0.7-0.1c-1.5,0-2.3,1-2.3,2.7v4.1h-1.9v-8.3h1.7v1.2h0
			c0.6-0.9,1.3-1.3,2.4-1.3C115,43.8,115.2,43.9,115.4,43.9"/>
		<path class="st1" d="M117.5,47.3L117.5,47.3h4.2c-0.1-1.5-1-2.2-2.1-2.2C118.4,45.1,117.6,45.8,117.5,47.3 M121.5,49.8h1.9
			c-0.3,1.5-1.7,2.8-3.8,2.8c-2.5,0-4-1.8-4-4.5c0-2.5,1.5-4.3,4-4.3c1.9,0,3.3,1.1,3.7,2.8c0.2,0.5,0.2,1.1,0.2,2h-6.1
			c0.1,1.9,1,2.7,2.2,2.7C120.7,51.1,121.4,50.6,121.5,49.8z"/>
		<path class="st1" d="M126.1,47.3L126.1,47.3h4.2c-0.1-1.5-1-2.2-2.1-2.2C127.1,45.1,126.2,45.8,126.1,47.3 M130.1,49.8h1.9
			c-0.3,1.5-1.7,2.8-3.8,2.8c-2.5,0-4-1.8-4-4.5c0-2.5,1.5-4.3,4-4.3c1.9,0,3.3,1.1,3.7,2.8c0.2,0.5,0.2,1.1,0.2,2H126
			c0.1,1.9,1,2.7,2.2,2.7C129.3,51.1,130,50.6,130.1,49.8z"/>
		<path class="st1" d="M140.6,47.2v5.1h-1.9v-4.9c0-1.5-0.6-2.1-1.7-2.1c-1.1,0-1.9,0.8-1.9,2.4v4.6h-1.9v-8.3h1.8V45h0
			c0.5-0.8,1.4-1.3,2.5-1.3C139.4,43.7,140.6,44.9,140.6,47.2"/>
		<path class="st1" d="M149.7,52.6c-0.8,2.1-1.7,2.8-3.6,2.8c-0.4,0-0.7,0-0.9-0.1v-1.5c0.2,0.1,0.5,0.1,0.8,0.1
			c1,0,1.5-0.4,1.9-1.5l-3.1-8.4h2l2.1,6.2h0l2.2-6.2h1.9L149.7,52.6z"/>
		<rect x="153.5" y="40.6" class="st1" width="1.9" height="11.7"/>
		<path class="st1" d="M156.9,52.3L156.9,52.3v-8.3h1.9v8.3H156.9z M156.9,42.4v-1.8h1.9v1.8H156.9z"/>
		<path class="st1" d="M161.9,48.1L161.9,48.1c0,1.8,0.8,2.9,2.1,2.9c1.3,0,2.2-1.1,2.2-2.9c0-1.8-0.8-2.9-2.2-2.9
			C162.7,45.2,161.9,46.3,161.9,48.1 M168.1,48.1c0,2.7-1.6,4.4-4.1,4.4c-2.5,0-4.1-1.7-4.1-4.4c0-2.7,1.6-4.4,4.1-4.4
			C166.6,43.7,168.1,45.4,168.1,48.1z"/>
		<path class="st1" d="M171,48.1L171,48.1c0,1.8,0.8,2.9,2,2.9c1.3,0,2.1-1.1,2.1-2.9c0-1.8-0.8-2.9-2.1-2.9
			C171.8,45.2,171,46.3,171,48.1 M177.1,48.1c0,2.7-1.3,4.4-3.5,4.4c-1,0-2-0.5-2.4-1.3h0v4.1h-1.9V43.9h1.8v1.1h0
			c0.5-0.9,1.4-1.4,2.5-1.4C175.7,43.7,177.1,45.4,177.1,48.1z"/>
		<path class="st1" d="M178.3,52.3L178.3,52.3v-8.3h1.9v8.3H178.3z M178.3,42.4v-1.8h1.9v1.8H178.3z"/>
		<path class="st1" d="M188.1,46.5h-1.8c0-1-0.6-1.5-1.6-1.5c-0.9,0-1.4,0.4-1.4,1c0,0.7,0.6,0.9,1.9,1.2c1.5,0.4,3.2,0.8,3.2,2.7
			c0,1.5-1.3,2.5-3.5,2.5c-2.2,0-3.6-1-3.6-3h1.9c0,1,0.6,1.6,1.7,1.6c1,0,1.5-0.4,1.5-1c0-0.9-0.7-1-2.1-1.4
			c-1.4-0.3-2.9-0.7-2.9-2.5c0-1.5,1.3-2.5,3.3-2.5C186.8,43.7,188,44.7,188.1,46.5"/>
		<path class="st1" d="M193.5,50.8v1.5c-0.3,0.1-0.7,0.1-1,0.1c-1.8,0-2.5-0.7-2.5-2.6v-4.4h-1.4v-1.4h1.4v-2.1h1.9v2.1h1.6v1.4
			h-1.6v4.2c0,0.9,0.3,1.3,1.1,1.3C193.1,50.8,193.4,50.8,193.5,50.8"/>
		<path class="st1" d="M195.7,48.1L195.7,48.1c0,1.8,0.8,2.9,2.2,2.9c1.3,0,2.1-1.1,2.1-2.9c0-1.8-0.8-2.9-2.1-2.9
			C196.5,45.2,195.7,46.3,195.7,48.1 M202,48.1c0,2.7-1.6,4.4-4.1,4.4c-2.5,0-4.1-1.7-4.1-4.4c0-2.7,1.6-4.4,4.1-4.4
			C200.4,43.7,202,45.4,202,48.1z"/>
		<polygon class="st1" points="68.2,58.9 68.2,68.8 66.2,68.8 66.2,58.9 62.4,58.9 62.4,57.2 72,57.2 72,58.9 		"/>
		<path class="st1" d="M76,64.9L76,64.9c-0.6,0-1.4,0.1-1.9,0.2c-1.2,0.2-1.6,0.6-1.6,1.3c0,0.7,0.5,1.2,1.5,1.2
			c0.6,0,1.1-0.2,1.5-0.6c0.4-0.5,0.6-0.9,0.6-1.8V64.9z M77.8,63.5v3.1c0,1,0.1,1.7,0.2,2.2h-1.7c-0.1-0.4-0.1-0.8-0.1-1.2h0
			c-0.6,0.9-1.5,1.3-2.8,1.3c-1.7,0-2.8-1-2.8-2.5c0-1.4,0.8-2.2,3.2-2.6c0.7-0.1,1.7-0.2,2.2-0.2v-0.3c0-1.2-0.7-1.7-1.6-1.7
			c-1,0-1.6,0.6-1.6,1.5h-1.8c0.1-1.6,1.2-2.8,3.5-2.8C76.6,60.3,77.8,61.3,77.8,63.5z"/>
		<path class="st1" d="M91.5,63.7v5.1h-1.9v-5c0-1.5-0.6-2.1-1.5-2.1c-1.1,0-1.8,0.9-1.8,2.5v4.5h-1.9v-5.2c0-1.2-0.5-1.9-1.5-1.9
			c-1.1,0-1.8,1-1.8,2.6v4.5h-1.9v-8.3h1.8v1h0c0.6-0.8,1.3-1.2,2.3-1.2c1.1,0,2,0.5,2.5,1.5c0.6-1,1.4-1.5,2.7-1.5
			C90.4,60.3,91.5,61.4,91.5,63.7"/>
		<path class="st1" d="M94.8,64.7L94.8,64.7c0,1.8,0.8,2.9,2,2.9c1.3,0,2.1-1.1,2.1-2.9c0-1.8-0.8-2.9-2.1-2.9
			C95.6,61.7,94.8,62.8,94.8,64.7 M100.8,64.7c0,2.7-1.3,4.4-3.5,4.4c-1,0-2-0.5-2.4-1.3h0v4.1H93V60.5h1.8v1.1h0
			c0.5-0.9,1.4-1.4,2.5-1.4C99.5,60.3,100.8,62,100.8,64.7z"/>
		<path class="st1" d="M103.4,63.8L103.4,63.8h4.2c-0.1-1.5-1-2.2-2.1-2.2C104.4,61.6,103.6,62.4,103.4,63.8 M107.5,66.3h1.9
			c-0.3,1.5-1.7,2.8-3.8,2.8c-2.5,0-4-1.8-4-4.5c0-2.5,1.5-4.3,4-4.3c1.9,0,3.3,1.1,3.7,2.8c0.2,0.5,0.2,1.1,0.2,2h-6.1
			c0.1,1.9,1,2.7,2.2,2.7C106.6,67.7,107.3,67.1,107.5,66.3z"/>
		<path class="st1" d="M115.4,60.5v1.7c-0.2,0-0.4-0.1-0.7-0.1c-1.5,0-2.3,1-2.3,2.7v4.1h-1.9v-8.3h1.7v1.2h0
			c0.6-0.9,1.3-1.3,2.4-1.3C114.9,60.4,115.2,60.4,115.4,60.5"/>
		<path class="st1" d="M117.4,63.8L117.4,63.8h4.2c-0.1-1.5-1-2.2-2.1-2.2C118.4,61.6,117.6,62.4,117.4,63.8 M121.5,66.3h1.9
			c-0.3,1.5-1.7,2.8-3.8,2.8c-2.5,0-4-1.8-4-4.5c0-2.5,1.5-4.3,4-4.3c1.9,0,3.3,1.1,3.7,2.8c0.2,0.5,0.2,1.1,0.2,2h-6.1
			c0.1,1.9,1,2.7,2.2,2.7C120.7,67.7,121.4,67.1,121.5,66.3z"/>
		<path class="st1" d="M126.1,63.8L126.1,63.8h4.2c-0.1-1.5-1-2.2-2.1-2.2C127,61.6,126.2,62.4,126.1,63.8 M130.1,66.3h1.9
			c-0.3,1.5-1.7,2.8-3.8,2.8c-2.5,0-4-1.8-4-4.5c0-2.5,1.5-4.3,4-4.3c1.9,0,3.3,1.1,3.7,2.8c0.2,0.5,0.2,1.1,0.2,2H126
			c0.1,1.9,1,2.7,2.2,2.7C129.3,67.7,130,67.1,130.1,66.3z"/>
		<path class="st1" d="M140.6,63.7v5.1h-1.9v-4.9c0-1.5-0.6-2.1-1.7-2.1c-1.1,0-1.9,0.8-1.9,2.4v4.6h-1.9v-8.3h1.8v1.1h0
			c0.5-0.8,1.4-1.3,2.5-1.3C139.4,60.3,140.6,61.4,140.6,63.7"/>
		<path class="st1" d="M150.7,64.9L150.7,64.9c-0.6,0-1.4,0.1-1.9,0.2c-1.2,0.2-1.6,0.6-1.6,1.3c0,0.7,0.5,1.2,1.5,1.2
			c0.6,0,1.1-0.2,1.5-0.6c0.4-0.5,0.6-0.9,0.6-1.8V64.9z M152.5,63.5v3.1c0,1,0.1,1.7,0.2,2.2h-1.7c-0.1-0.4-0.1-0.8-0.1-1.2h0
			c-0.6,0.9-1.5,1.3-2.8,1.3c-1.7,0-2.8-1-2.8-2.5c0-1.4,0.8-2.2,3.2-2.6c0.7-0.1,1.7-0.2,2.2-0.2v-0.3c0-1.2-0.7-1.7-1.6-1.7
			c-1,0-1.6,0.6-1.6,1.5h-1.8c0.1-1.6,1.2-2.8,3.5-2.8C151.3,60.3,152.5,61.3,152.5,63.5z"/>
		<path class="st1" d="M166.2,63.7v5.1h-1.9v-5c0-1.5-0.6-2.1-1.5-2.1c-1.1,0-1.8,0.9-1.8,2.5v4.5h-1.9v-5.2c0-1.2-0.5-1.9-1.5-1.9
			c-1.1,0-1.8,1-1.8,2.6v4.5h-1.9v-8.3h1.8v1h0c0.6-0.8,1.3-1.2,2.3-1.2c1.1,0,2,0.5,2.5,1.5c0.6-1,1.4-1.5,2.7-1.5
			C165.1,60.3,166.2,61.4,166.2,63.7"/>
		<path class="st1" d="M179.9,63.7v5.1H178v-5c0-1.5-0.6-2.1-1.5-2.1c-1.1,0-1.8,0.9-1.8,2.5v4.5h-1.9v-5.2c0-1.2-0.5-1.9-1.5-1.9
			c-1.1,0-1.8,1-1.8,2.6v4.5h-1.9v-8.3h1.8v1h0c0.6-0.8,1.3-1.2,2.3-1.2c1.1,0,2,0.5,2.5,1.5c0.6-1,1.4-1.5,2.7-1.5
			C178.8,60.3,179.9,61.4,179.9,63.7"/>
		<path class="st1" d="M186.3,64.9L186.3,64.9c-0.6,0-1.4,0.1-1.9,0.2c-1.2,0.2-1.6,0.6-1.6,1.3c0,0.7,0.5,1.2,1.5,1.2
			c0.6,0,1.1-0.2,1.5-0.6c0.4-0.5,0.6-0.9,0.6-1.8V64.9z M188.1,63.5v3.1c0,1,0.1,1.7,0.2,2.2h-1.7c-0.1-0.4-0.1-0.8-0.1-1.2h0
			c-0.6,0.9-1.5,1.3-2.8,1.3c-1.7,0-2.8-1-2.8-2.5c0-1.4,0.8-2.2,3.2-2.6c0.7-0.1,1.7-0.2,2.2-0.2v-0.3c0-1.2-0.7-1.7-1.6-1.7
			c-1,0-1.6,0.6-1.6,1.5h-1.8c0.1-1.6,1.2-2.8,3.5-2.8C186.9,60.3,188.1,61.3,188.1,63.5z"/>
		<path class="st1" d="M193.6,67.3v1.5c-0.3,0.1-0.7,0.1-1,0.1c-1.8,0-2.5-0.7-2.5-2.6v-4.4h-1.4v-1.4h1.4v-2.1h1.9v2.1h1.6v1.4
			h-1.6v4.2c0,0.9,0.3,1.3,1.1,1.3C193.2,67.4,193.4,67.4,193.6,67.3"/>
		<path class="st1" d="M198.8,67.3v1.5c-0.3,0.1-0.7,0.1-1.1,0.1c-1.8,0-2.5-0.7-2.5-2.6v-4.4h-1.4v-1.4h1.4v-2.1h1.9v2.1h1.6v1.4
			h-1.6v4.2c0,0.9,0.3,1.3,1.1,1.3C198.5,67.4,198.7,67.4,198.8,67.3"/>
		<path class="st1" d="M199.7,68.8L199.7,68.8v-8.3h1.9v8.3H199.7z M199.7,58.9v-1.8h1.9v1.8H199.7z"/>
		<polygon class="st1" points="208.3,68.8 205,64.8 205,64.8 205,68.8 203.1,68.8 203.1,57.2 205,57.2 205,63.9 205,63.9 
			208.1,60.5 210.3,60.5 206.8,64.3 210.6,68.8 		"/>
		<path class="st1" d="M212,64.7L212,64.7c0,1.8,0.8,2.9,2.2,2.9c1.3,0,2.1-1.1,2.1-2.9c0-1.8-0.8-2.9-2.1-2.9
			C212.9,61.7,212,62.9,212,64.7 M218.3,64.7c0,2.7-1.6,4.4-4.1,4.4c-2.5,0-4.1-1.7-4.1-4.4c0-2.7,1.6-4.4,4.1-4.4
			C216.7,60.3,218.3,62,218.3,64.7z"/>
		<path class="st1" d="M224.3,60.5v1.7c-0.2,0-0.4-0.1-0.7-0.1c-1.5,0-2.3,1-2.3,2.7v4.1h-1.9v-8.3h1.7v1.2h0
			c0.6-0.9,1.3-1.3,2.4-1.3C223.8,60.4,224,60.4,224.3,60.5"/>
		<polygon class="st1" points="230.1,68.8 226.8,64.8 226.8,64.8 226.8,68.8 224.9,68.8 224.9,57.2 226.8,57.2 226.8,63.9 
			226.8,63.9 229.9,60.5 232,60.5 228.6,64.3 232.4,68.8 		"/>
		<path class="st1" d="M233.7,63.8L233.7,63.8h4.2c-0.1-1.5-1-2.2-2.1-2.2C234.7,61.6,233.9,62.4,233.7,63.8 M237.8,66.3h1.9
			c-0.3,1.5-1.7,2.8-3.8,2.8c-2.5,0-4-1.8-4-4.5c0-2.5,1.5-4.3,4-4.3c1.9,0,3.3,1.1,3.7,2.8c0.2,0.5,0.2,1.1,0.2,2h-6.1
			c0.1,1.9,1,2.7,2.2,2.7C237,67.7,237.6,67.1,237.8,66.3z"/>
		<path class="st1" d="M245.8,64.9L245.8,64.9c-0.6,0-1.4,0.1-1.9,0.2c-1.2,0.2-1.6,0.6-1.6,1.3c0,0.7,0.5,1.2,1.5,1.2
			c0.6,0,1.1-0.2,1.5-0.6c0.4-0.5,0.6-0.9,0.6-1.8V64.9z M247.6,63.5v3.1c0,1,0.1,1.7,0.2,2.2h-1.7c-0.1-0.4-0.1-0.8-0.1-1.2h0
			c-0.6,0.9-1.5,1.3-2.8,1.3c-1.7,0-2.8-1-2.8-2.5c0-1.4,0.8-2.2,3.2-2.6c0.7-0.1,1.7-0.2,2.2-0.2v-0.3c0-1.2-0.7-1.7-1.6-1.7
			c-1,0-1.6,0.6-1.6,1.5h-1.8c0.1-1.6,1.2-2.8,3.5-2.8C246.4,60.3,247.6,61.3,247.6,63.5z"/>
		<polygon class="st1" points="254.3,68.8 251,64.8 251,64.8 251,68.8 249.1,68.8 249.1,57.2 251,57.2 251,63.9 251,63.9 
			254.1,60.5 256.2,60.5 252.8,64.3 256.6,68.8 		"/>
		<path class="st1" d="M258,64.7L258,64.7c0,1.8,0.8,2.9,2.1,2.9s2.1-1.1,2.1-2.9c0-1.8-0.8-2.9-2.1-2.9S258,62.9,258,64.7
			 M264.3,64.7c0,2.7-1.6,4.4-4.1,4.4c-2.5,0-4.1-1.7-4.1-4.4c0-2.7,1.6-4.4,4.1-4.4C262.7,60.3,264.3,62,264.3,64.7z"/>
		<path class="st1" d="M265.3,65.6v-5.1h1.9v4.9c0,1.5,0.6,2.1,1.7,2.1c1.1,0,1.9-0.8,1.9-2.4v-4.6h1.9v8.3h-1.8v-1.1h0
			c-0.5,0.8-1.4,1.3-2.5,1.3C266.5,69,265.3,67.9,265.3,65.6"/>
		<rect x="274.2" y="57.2" class="st1" width="1.9" height="11.7"/>
		<path class="st1" d="M277.6,65.6v-5.1h1.9v4.9c0,1.5,0.6,2.1,1.7,2.1c1.1,0,1.9-0.8,1.9-2.4v-4.6h1.9v8.3h-1.8v-1.1h0
			c-0.5,0.8-1.4,1.3-2.5,1.3C278.8,69,277.6,67.9,277.6,65.6"/>
	</g>
</g>
</svg>
